:SAMPLES-PER-SECOND 30
:FULLY-SPECIFIED
:DEGREES
69
root  37.2592 36.9975 -10.9494 8.6757 -25.7901 9.43103
RightUpLeg  -48.0337 -21.4311 9.17756
RightLeg  37.3427 -9.73389 -15.889
RightFoot  -8.35854 0.328978 -7.76511
RightToes  1.74622e-010 -3.18055e-015 8.94531e-016
Spine  42.6335 -10.3171 21.7188
Spine1  4.57721 1.59627 -10.5425
HEad  -15.736 31.8541 -19.0053
LeftShoulder1  0 0 -2.47967e-037
LeftArm  11.8182 19.5244 -77.4794
LeftForeArm  -38.6079 -19.3231 2.35259
LeftHand  0.969261 7.08317 0.335989
RightShoulder  -2.48481e-017 0 -8.08114e-019
RightArm  0.923997 -6.98916 48.6195
RightForeArm  -37.8557 13.9054 -1.48099
RightHand  1.38118 -12.1046 -3.84571
LeftUpLeg  -12.5051 15.3511 5.15293
LeftLeg  19.505 16.3937 8.26246
LeftFoot  0.263986 2.82599 -23.1985
LeftToes  -1.45516e-011 5.53925e-011 1.30052e-011
70
root  38.4249 37.2485 -11.1782 6.6416 -19.1158 8.74869
RightUpLeg  -44.1921 -20.7775 3.33674
RightLeg  36.8967 -7.23483 -13.7625
RightFoot  -6.14364 0.346439 -5.70512
RightToes  1.74622e-010 -3.18055e-015 8.94531e-016
Spine  37.7495 -8.57864 16.7752
Spine1  5.52944 -0.762056 -6.70115
HEad  -13.0304 35.7588 -18.1592
LeftShoulder1  0 0 -2.47967e-037
LeftArm  14.7354 19.1451 -79.2914
LeftForeArm  -36.5252 -20.2267 3.84855
LeftHand  0.969339 7.09035 0.150673
RightShoulder  -2.48481e-017 0 -8.08114e-019
RightArm  3.95284 -12.696 49.7917
RightForeArm  -43.1966 15.7945 -3.67091
RightHand  1.37942 -12.2028 -3.52113
LeftUpLeg  -13.7716 12.9229 5.0598
LeftLeg  21.4573 10.9816 8.38897
LeftFoot  -2.5616 2.01569 -21.1608
LeftToes  -1.45516e-011 5.53925e-011 1.30052e-011
71
root  39.3276 37.6755 -11.2842 5.73248 -11.6613 8.91702
RightUpLeg  -39.9086 -17.0075 -3.90716
RightLeg  36.0491 -1.17452 -8.77498
RightFoot  -3.44629 0.161546 -1.92916
RightToes  1.74622e-010 -3.18055e-015 8.94531e-016
Spine  32.7199 -7.35789 12.6444
Spine1  6.22863 -2.82056 -3.50601
HEad  -11.6833 38.0925 -17.7425
LeftShoulder1  0 0 -2.47967e-037
LeftArm  13.7152 20.1288 -81.4206
LeftForeArm  -35.0326 -20.5084 4.57327
LeftHand  0.945848 6.93479 0.421946
RightShoulder  -2.48481e-017 0 -8.08114e-019
RightArm  9.14531 -19.6465 50.2956
RightForeArm  -48.2986 17.7706 -6.82085
RightHand  1.42404 -12.3568 -3.98517
LeftUpLeg  -15.1911 12.2234 3.81061
LeftLeg  21.0945 4.66917 5.70356
LeftFoot  -0.333908 2.09197 -18.1784
LeftToes  -1.45516e-011 5.53925e-011 1.30052e-011
72
root  40.1091 38.1463 -11.2513 4.26278 -5.65161 7.52252
RightUpLeg  -33.5733 -9.4796 -8.68753
RightLeg  34.2528 6.74156 -2.33717
RightFoot  -0.953614 -0.181711 1.74954
RightToes  1.74622e-010 -3.18055e-015 8.94531e-016
Spine  29.9084 -6.44088 10.8178
Spine1  6.10279 -3.06253 -2.65874
HEad  -10.5986 39.2267 -17.8137
LeftShoulder1  0 0 -2.47967e-037
LeftArm  12.938 22.2935 -83.9054
LeftForeArm  -36.4203 -20.7388 4.82341
LeftHand  0.882561 6.53714 1.38939
RightShoulder  -2.48481e-017 0 -8.08114e-019
RightArm  15.6992 -27.7122 50.2613
RightForeArm  -53.7558 19.2956 -10.2856
RightHand  1.34632 -12.0134 -3.35713
LeftUpLeg  -14.1179 11.511 4.04404
LeftLeg  19.6588 1.74881 3.80393
LeftFoot  2.36598 2.12055 -15.1336
LeftToes  -1.45516e-011 5.53925e-011 1.30052e-011
73
root  40.825 38.6687 -11.0351 2.18823 0.392903 4.88846
RightUpLeg  -26.346 -2.24383 -9.66461
RightLeg  30.9487 11.1022 0.973991
RightFoot  1.14218 -0.500134 3.99614
RightToes  1.74622e-010 -3.18055e-015 8.94531e-016
Spine  27.4279 -5.81157 10.6905
Spine1  6.30764 -2.95841 -2.11551
HEad  -9.33939 39.8655 -18.1718
LeftShoulder1  0 0 -2.47967e-037
LeftArm  15.8782 25.0674 -86.0102
LeftForeArm  -39.0056 -21.0389 4.7502
LeftHand  0.86181 6.4071 1.53112
RightShoulder  -2.48481e-017 0 -8.08114e-019
RightArm  22.5703 -34.9822 50.0275
RightForeArm  -58.3202 20.132 -12.3932
RightHand  1.26122 -11.7577 -2.26616
LeftUpLeg  -11.858 9.60515 6.17808
LeftLeg  17.982 0.38513 2.18392
LeftFoot  3.08047 1.87089 -12.7929
LeftToes  -1.45516e-011 5.53925e-011 1.30052e-011
74
root  41.5122 39.1957 -10.7412 1.50733 7.36261 2.9563
RightUpLeg  -20.9266 1.606 -9.52968
RightLeg  26.5153 8.13585 -0.68913
RightFoot  3.99636 -0.976907 6.43888
RightToes  1.74622e-010 -3.18055e-015 8.94531e-016
Spine  23.3392 -4.93433 9.73512
Spine1  6.84411 -3.42012 0.317957
HEad  -8.2111 39.8998 -18.2988
LeftShoulder1  0 0 -2.47967e-037
LeftArm  21.5322 27.8331 -87.2868
LeftForeArm  -40.1725 -21.3483 4.70339
LeftHand  0.902116 6.57798 -0.682224
RightShoulder  -2.48481e-017 0 -8.08114e-019
RightArm  28.2165 -40.757 50.3402
RightForeArm  -59.2061 20.3616 -12.2791
RightHand  1.24867 -11.7253 -2.08133
LeftUpLeg  -11.6969 9.7433 6.96968
LeftLeg  16.2917 -0.528258 0.99074
LeftFoot  5.02956 1.90844 -11.6256
LeftToes  -1.45516e-011 5.53925e-011 1.30052e-011
75
root  42.2668 39.6586 -10.4433 1.78857 15.5144 1.75003
RightUpLeg  -16.2032 1.87156 -9.76052
RightLeg  21.7701 0.244639 -3.93816
RightFoot  7.69934 -1.68814 9.15911
RightToes  1.74622e-010 -3.18055e-015 8.94531e-016
Spine  18.5604 -4.4112 8.64016
Spine1  7.13932 -4.27423 3.00549
HEad  -7.05237 38.8287 -17.628
LeftShoulder1  0 0 -2.47967e-037
LeftArm  26.1376 30.4816 -87.5294
LeftForeArm  -38.9034 -21.5239 4.86995
LeftHand  0.947107 6.69844 -4.80441
RightShoulder  -2.48481e-017 0 -8.08114e-019
RightArm  30.2065 -46.2571 52.1434
RightForeArm  -56.0004 20.1602 -10.9039
RightHand  1.25619 -11.5679 -2.65361
LeftUpLeg  -12.8594 9.99358 5.87903
LeftLeg  14.2681 4.08877 1.30373
LeftFoot  9.05774 2.05704 -10.2344
LeftToes  -1.45516e-011 5.53925e-011 1.30052e-011
76
root  43.1301 39.9699 -10.1653 1.09252 23.431 -0.0255127
RightUpLeg  -10.4802 0.483292 -9.17112
RightLeg  17.0038 -6.95336 -5.46057
RightFoot  11.177 -2.27747 10.5484
RightToes  1.74622e-010 -3.18055e-015 8.94531e-016
Spine  14.7729 -4.31522 8.93413
Spine1  7.42005 -4.66096 3.60216
HEad  -6.0305 36.9743 -16.6686
LeftShoulder1  0 0 -2.47967e-037
LeftArm  27.7706 33.0584 -86.6524
LeftForeArm  -36.7444 -21.5911 5.25376
LeftHand  0.961593 6.5638 -8.02619
RightShoulder  -2.48481e-017 0 -8.08114e-019
RightArm  27.4181 -51.4886 56.2437
RightForeArm  -51.3989 19.7764 -9.55349
RightHand  1.23135 -11.2907 -2.86386
LeftUpLeg  -13.221 8.8272 4.83663
LeftLeg  12.5147 12.5377 2.33945
LeftFoot  10.9157 1.46863 -6.60609
LeftToes  -1.45516e-011 5.53925e-011 1.30052e-011
77
root  44.0413 40.1286 -9.90332 -0.974737 30.0687 -2.63943
RightUpLeg  -4.56448 -2.21899 -7.65803
RightLeg  12.8299 -10.1708 -5.07979
RightFoot  13.6252 -2.62384 10.9817
RightToes  1.74622e-010 -3.18055e-015 8.94531e-016
Spine  11.7931 -4.09107 9.7362
Spine1  8.72701 -4.51922 2.93722
HEad  -6.0511 35.1557 -16.3958
LeftShoulder1  0 0 -2.47967e-037
LeftArm  27.6937 35.1395 -84.9307
LeftForeArm  -35.8385 -21.7058 5.76658
LeftHand  0.928091 6.16139 -7.78811
RightShoulder  -2.48481e-017 0 -8.08114e-019
RightArm  22.9403 -54.6349 62.8468
RightForeArm  -49.3708 19.64 -9.10651
RightHand  1.18548 -11.0778 -2.40153
LeftUpLeg  -12.8976 8.11728 4.78411
LeftLeg  12.1793 15.4461 2.77169
LeftFoot  9.20013 0.493603 -2.31678
LeftToes  -1.45516e-011 5.53925e-011 1.30052e-011
78
root  44.9435 40.1293 -9.64302 -2.97233 35.725 -4.93994
RightUpLeg  -0.407337 -4.85383 -6.9916
RightLeg  11.2142 -11.9646 -4.63748
RightFoot  15.1105 -2.90982 11.5114
RightToes  1.74622e-010 -3.18055e-015 8.94531e-016
Spine  8.79176 -3.49605 9.28421
Spine1  10.9681 -4.23126 2.74964
HEad  -7.07105 33.5382 -16.4898
LeftShoulder1  0 0 -2.47967e-037
LeftArm  25.5193 36.0053 -82.7282
LeftForeArm  -33.9165 -21.185 4.96618
LeftHand  0.835537 5.51291 -4.89464
RightShoulder  -2.48481e-017 0 -8.08114e-019
RightArm  20.1334 -54.8139 71.0161
RightForeArm  -50.5725 19.8927 -9.58014
RightHand  1.16987 -11.0095 -2.2239
LeftUpLeg  -13.0714 8.20549 4.56438
LeftLeg  13.443 10.9119 3.22473
LeftFoot  6.32625 0.0892346 -0.433215
LeftToes  -1.45516e-011 5.53925e-011 1.30052e-011
